<?xml version="1.0" encoding="UTF-8"?>
<!-- Generated by Pixelmator Pro 2.4.2 -->
<svg width="421" height="388" viewBox="0 0 421 388" xmlns="http://www.w3.org/2000/svg" xmlns:xlink="http://www.w3.org/1999/xlink">
    <path id="Shape" fill="#ffffff" fill-rule="evenodd" stroke="none" d="M 269 318 C 269 329.311218 268.58667 331.064087 267.09787 332.411438 C 265.240692 334.092133 265.38327 334.693024 273.125061 357.816437 C 277.717651 371.533691 280.937744 382.762421 280.777191 384.5 C 280.5 387.5 280.5 387.5 267.236328 387.779114 C 254.22464 388.052948 253.956757 388.014954 253.136719 385.779114 C 252.676971 384.525604 249.445068 372.362488 245.954742 358.75 C 239.608704 334 239.608704 334 235.883453 334 C 232.158234 334 232.158234 334 238.168884 357.25 C 241.474701 370.037506 244.42337 382.1875 244.721405 384.25 C 245.263336 388 245.263336 388 234.170227 388 C 223.077087 388 223.077087 388 222.128235 384.25 C 221.606354 382.1875 218.818359 370.037506 215.932678 357.25 C 210.685974 334 210.685974 334 207.211304 334 C 203.762024 334 203.740814 334.027374 204.303619 337.75 C 204.615479 339.8125 206.886566 350.274994 209.350525 361 C 211.814484 371.725006 214.146545 382.202728 214.532867 384.283844 C 215.235291 388.067688 215.235291 388.067688 203.867645 387.783844 L 192.5 387.5 L 188.884857 365.5 C 186.896515 353.399994 184.956451 341.362488 184.573578 338.75 C 183.891907 334.098511 183.803284 334 180.301056 334 C 176.72464 334 176.72464 334 177.350372 339.25 C 177.69455 342.137512 179.269562 352.375 180.850464 362 C 182.431335 371.625 184.017029 381.412506 184.374207 383.75 C 185.023621 388 185.023621 388 172.605133 388 L 160.186646 388 L 159.552307 378.75 C 159.203415 373.662506 158.500534 363.086426 157.990356 355.24762 C 157.480194 347.408813 156.936142 339.533813 156.781387 337.74762 C 156.530319 334.849976 156.132767 334.464966 153.092377 334.174896 C 149.684769 333.849762 149.684769 333.849762 150.342377 347.424896 C 150.704071 354.891205 151.294403 367.075012 151.654221 374.5 L 152.308441 388 L 140.025406 388 L 127.742355 388 L 128.38588 377.75 C 128.739807 372.112488 129.247559 365.024994 129.514191 362 C 129.780823 358.975006 130.288254 351.4375 130.641815 345.25 C 131.284653 334 131.284653 334 127.746414 334 C 124.20816 334 124.20816 334 123.598648 341.75 C 123.263428 346.012512 122.521423 357.149994 121.949753 366.5 C 121.378082 375.850006 120.69696 384.512512 120.436127 385.75 C 119.975922 387.933441 119.603485 388 107.845016 388 C 95.728149 388 95.728149 388 96.35347 383.437805 C 96.697403 380.928589 98.34169 370.241089 100.007477 359.687805 C 101.673248 349.134521 103.303101 339.037506 103.629364 337.25 C 104.207092 334.084839 104.130402 334 100.69075 334 C 97.649155 334 97.07608 334.381714 96.56221 336.75 C 96.234024 338.262512 94.417664 348.950012 92.525864 360.5 C 90.634048 372.049988 88.821426 382.962494 88.497803 384.75 C 87.909378 388 87.909378 388 76.818756 388 C 65.728149 388 65.728149 388 66.337646 383.75 C 66.672867 381.412506 68.927155 370.725006 71.347198 360 C 73.767227 349.274994 76.017868 339.037506 76.348633 337.25 C 76.932022 334.097168 76.84726 334 73.51355 334 C 70.384872 334 69.988571 334.335876 69.088882 337.75 C 68.545364 339.8125 65.990723 350.950012 63.411911 362.5 C 60.833084 374.049988 58.346573 384.512512 57.886322 385.75 C 57.08725 387.898499 56.547226 388 45.916336 388 C 34.78318 388 34.78318 388 35.440506 385.25 C 35.802032 383.737488 38.578224 372.856689 41.609818 361.070465 C 44.641418 349.28421 47.375656 338.371704 47.685913 336.820465 C 48.22081 334.145935 48.064423 334 44.663544 334 C 41.316956 334 41.008301 334.2677 40.048523 338.002563 C 39.482803 340.203979 36.771835 350.555695 34.024139 361.006409 C 31.276451 371.457123 28.554619 381.805969 27.975624 384.003845 C 26.922913 388 26.922913 388 14.0839 388 C 3.545326 388 1.007431 387.713867 -0.080376 386.403137 C -1.207977 385.044495 -0.167702 381.082489 6.894341 359.839264 C 14.542625 336.83255 15.069847 334.73465 13.609039 333.120483 C 12.737129 332.157043 11.740341 329.951721 11.393951 328.219757 C 11.047562 326.487793 11.062607 323.479828 11.427383 321.53537 C 12.09063 318 12.09063 318 140.545319 318 L 269 318 Z M 324.047302 388 C 292.457611 388 292.457611 388 291.303864 382.25 C 290.669312 379.087494 287.179047 367.725006 283.547699 357 C 278.167267 341.109131 277.135437 337.07486 277.972626 335.202942 C 278.537689 333.939575 279 327.157227 279 320.131104 C 279 311.128204 278.534943 305.991394 277.424896 302.733612 C 276.558594 300.191162 274.067596 296.086243 271.889343 293.611633 C 269.680054 291.101746 265.402161 287.871521 262.214447 286.306152 C 256.5 283.5 256.5 283.5 231.846771 283.174011 C 209.591522 282.87973 207.150024 282.681702 206.746338 281.137939 C 206.500366 280.197388 205.011261 271.730347 203.437195 262.322296 C 201.0289 247.928055 200.786835 244.961777 201.910065 243.608353 C 203.119629 242.150925 212.27771 242 299.5 242 C 384.367157 242 395.904236 242.179672 397.015533 243.518707 C 397.857422 244.533127 398.08728 246.774475 397.707733 250.268707 C 397.395203 253.14592 394.859894 268.662811 392.073669 284.750671 C 389.287445 300.838562 384.956757 326.038574 382.44989 340.750671 C 379.943024 355.462799 377.424347 369.299988 376.852814 371.5 C 376.163666 374.152618 374.181976 377.080688 370.969696 380.192566 C 367.602783 383.454315 364.526672 385.360046 360.881378 386.442566 C 356.617157 387.708923 349.733032 388 324.047302 388 Z M 350.5 355 C 351.114746 355 352.357666 354.4375 353.261993 353.75 C 354.526886 352.788391 355.393127 348.23175 357.016571 334 C 358.177246 323.825012 360.208801 306.555725 361.531097 295.623779 C 363.218231 281.67572 363.636169 275.188721 362.932465 273.873779 C 362.295837 272.684265 360.839142 272 358.94339 272 C 356.794891 272 355.690369 272.631226 355.006317 274.25 C 354.483398 275.487488 353.358154 282.350006 352.505829 289.5 C 351.653473 296.649994 350.068604 310.149994 348.983887 319.5 C 347.899139 328.850006 346.713715 340.054626 346.349609 344.39917 C 345.764282 351.383026 345.901642 352.454895 347.534912 353.64917 C 348.550964 354.392151 349.885254 355 350.5 355 Z M 140.494156 312 C 11.738312 312 11.738312 312 12.334373 308.326904 C 12.662209 306.306702 14.194862 303.091583 15.740273 301.18219 C 17.285683 299.272766 20.106812 296.875671 22.009453 295.855286 C 25.20787 294.139954 28.383347 294 64.109406 294 C 85.361725 294 104.108109 293.728394 105.768005 293.396393 C 108.731445 292.803711 108.793182 292.665985 109.182312 285.779236 C 109.544479 279.369751 109.856506 278.517395 112.805084 275.882843 C 116.031555 273 116.031555 273 140.592697 273 C 165.153839 273 165.153839 273 168.076935 275.923096 C 170.747742 278.593872 171 279.446838 171 285.806458 C 171 292.179199 171.189941 292.817627 173.25 293.36972 C 174.487488 293.701355 193.460449 293.978821 215.41214 293.986328 C 255.32428 294 255.32428 294 259.575104 296.49115 C 261.913086 297.861267 264.764191 300.500397 265.910919 302.355835 C 267.057648 304.211304 268.278046 307.140289 268.622955 308.864685 C 269.25 312 269.25 312 140.494156 312 Z M 140.514725 266 C 125.146362 266 121.885956 265.743103 120.571426 264.428589 C 119.159851 263.016998 119 250.317322 119 139.585846 C 119 16.314575 119 16.314575 121.289032 11.985962 C 122.547989 9.605194 125.156372 6.379883 127.085434 4.818573 C 129.146957 3.150055 132.840988 1.518036 136.046402 0.85965 C 140.177292 0.011169 142.564377 0.032013 145.888474 0.945587 C 148.552917 1.677856 152.00621 3.791473 154.678818 6.325836 C 157.099838 8.621613 159.717789 12.299988 160.496445 14.5 C 161.686813 17.863159 161.919205 37.848724 161.9561 140.027496 C 161.99527 248.447342 161.832092 261.794708 160.443298 263.777496 C 158.930695 265.937012 158.366074 266 140.514725 266 Z M 300.67688 234.740906 C 191.5 234.981812 191.5 234.981812 187.520386 232.72052 C 185.331604 231.476822 182.50293 228.668411 181.234436 226.479614 C 179.24939 223.054367 178.967926 221.360886 179.21405 214.322586 C 179.438843 207.893768 179.947327 205.541611 181.591949 203.322586 C 182.742523 201.770157 185.093079 199.540375 186.81546 198.367523 C 188.537811 197.194641 191.927673 195.938019 194.34848 195.574982 C 198.749969 194.914948 198.749969 194.914948 199.450012 187.810364 C 199.835052 183.902863 201.265076 176.834473 202.627808 172.102905 C 203.99057 167.371307 206.843933 159.899994 208.968628 155.5 C 211.093323 151.100006 215.580963 143.813354 218.941132 139.307465 C 222.30127 134.801605 227.626648 128.79715 230.775269 125.964294 C 233.923859 123.131409 239.025421 119.080933 242.112061 116.963226 C 245.198669 114.84552 251.333466 111.292877 255.744904 109.068451 C 260.156342 106.844055 267.980927 103.850739 273.132874 102.416656 C 280.305237 100.420166 285.663116 99.691833 296 99.308228 C 306.992767 98.900269 311.264343 99.174194 319 100.783203 C 324.225006 101.869995 332.103912 104.154205 336.508728 105.859222 C 340.913513 107.56427 348.338501 111.307251 353.008728 114.177032 C 358.241241 117.392334 364.977783 122.868958 370.561981 128.447388 C 375.546082 133.426331 381.355621 140.15979 383.472076 143.410675 C 385.588562 146.66156 388.607239 151.896942 390.180298 155.044891 C 391.753357 158.192841 394.144501 164.014679 395.493958 167.982269 C 396.843445 171.94989 398.3797 177.739471 398.907898 180.848053 C 399.436096 183.956635 400.155029 188.368439 400.505493 190.6521 C 401.091553 194.470856 401.435272 194.85907 404.786804 195.487823 C 406.791046 195.863831 409.669525 196.811981 411.183441 197.594849 C 412.697357 198.377747 415.063141 200.233856 416.440796 201.719574 C 417.893463 203.286194 419.40448 206.631424 420.038086 209.683517 C 420.638977 212.577972 420.823334 216.995209 420.447784 219.499588 C 420.072235 222.003967 418.805359 225.462204 417.632477 227.184555 C 416.459625 228.906906 414.229614 231.257477 412.67688 232.408051 C 409.857727 234.497086 409.701416 234.500336 300.67688 234.740906 Z M 299.546051 195 C 384.279816 195 384.279816 195 383.735077 189.75 C 383.435486 186.862488 382.437805 181.601044 381.518005 178.057861 C 380.598236 174.514679 378.567596 168.796967 377.005524 165.351868 C 375.44342 161.906769 372.481232 156.550812 370.422852 153.449768 C 368.364502 150.348694 364.389801 145.299286 361.590179 142.228851 C 358.790588 139.158417 353.799988 134.651886 350.5 132.214386 C 347.200012 129.776886 341.479736 126.259521 337.78833 124.39801 C 334.096893 122.536499 327.121887 119.866669 322.28833 118.465057 C 317.41803 117.052765 309.487579 115.660767 304.5 115.342682 C 298.315948 114.948334 292.587677 115.277374 286.191986 116.394318 C 281.072571 117.288361 273.357574 119.379791 269.047546 121.041901 C 264.737518 122.704041 258.377411 125.895477 254.914001 128.134003 C 251.450562 130.372498 246.395721 134.070618 243.68103 136.35202 C 240.966309 138.633392 236.324799 143.587006 233.366547 147.359985 C 230.408264 151.132965 226.164093 157.900543 223.934998 162.399017 C 221.705902 166.897522 219.06311 173.71051 218.062103 177.539032 C 217.061096 181.367584 215.92038 186.862488 215.527222 189.75 C 214.812317 195 214.812317 195 299.546051 195 Z"/>
</svg>
